<svg xmlns="http://www.w3.org/2000/svg" xmlns:xlink="http://www.w3.org/1999/xlink" width="500" zoomAndPan="magnify" viewBox="0 0 375 374.999991" height="500" preserveAspectRatio="xMidYMid meet" version="1.0"><defs><clipPath id="da5c9a3dd5"><path d="M 244.015625 140.75 L 325.09375 140.75 L 325.09375 225.941406 L 244.015625 225.941406 Z M 244.015625 140.75 " clip-rule="nonzero"/></clipPath><clipPath id="9748c2d8d8"><path d="M 261.265625 140.75 L 307.84375 140.75 C 312.417969 140.75 316.808594 142.566406 320.042969 145.800781 C 323.277344 149.035156 325.09375 153.421875 325.09375 158 L 325.09375 208.652344 C 325.09375 213.226562 323.277344 217.613281 320.042969 220.851562 C 316.808594 224.085938 312.417969 225.902344 307.84375 225.902344 L 261.265625 225.902344 C 256.691406 225.902344 252.304688 224.085938 249.070312 220.851562 C 245.835938 217.613281 244.015625 213.226562 244.015625 208.652344 L 244.015625 158 C 244.015625 153.421875 245.835938 149.035156 249.070312 145.800781 C 252.304688 142.566406 256.691406 140.75 261.265625 140.75 Z M 261.265625 140.75 " clip-rule="nonzero"/></clipPath><clipPath id="1dc6a8dc2c"><path d="M 49.90625 140.75 L 131.125 140.75 L 131.125 226 L 49.90625 226 Z M 49.90625 140.75 " clip-rule="nonzero"/></clipPath><clipPath id="76ff435080"><path d="M 67.15625 140.75 L 113.875 140.75 C 118.449219 140.75 122.835938 142.566406 126.070312 145.800781 C 129.304688 149.035156 131.125 153.421875 131.125 158 L 131.125 208.652344 C 131.125 213.226562 129.304688 217.613281 126.070312 220.851562 C 122.835938 224.085938 118.449219 225.902344 113.875 225.902344 L 67.15625 225.902344 C 62.582031 225.902344 58.191406 224.085938 54.957031 220.851562 C 51.722656 217.613281 49.90625 213.226562 49.90625 208.652344 L 49.90625 158 C 49.90625 153.421875 51.722656 149.035156 54.957031 145.800781 C 58.191406 142.566406 62.582031 140.75 67.15625 140.75 Z M 67.15625 140.75 " clip-rule="nonzero"/></clipPath><clipPath id="bb6f76926c"><path d="M 147.039062 240.914062 L 228.113281 240.914062 L 228.113281 326.109375 L 147.039062 326.109375 Z M 147.039062 240.914062 " clip-rule="nonzero"/></clipPath><clipPath id="7823e6c5c0"><path d="M 164.289062 240.914062 L 210.863281 240.914062 C 215.441406 240.914062 219.828125 242.734375 223.0625 245.96875 C 226.296875 249.203125 228.113281 253.589844 228.113281 258.164062 L 228.113281 308.820312 C 228.113281 313.394531 226.296875 317.78125 223.0625 321.019531 C 219.828125 324.253906 215.441406 326.070312 210.863281 326.070312 L 164.289062 326.070312 C 159.710938 326.070312 155.324219 324.253906 152.089844 321.019531 C 148.855469 317.78125 147.039062 313.394531 147.039062 308.820312 L 147.039062 258.164062 C 147.039062 253.589844 148.855469 249.203125 152.089844 245.96875 C 155.324219 242.734375 159.710938 240.914062 164.289062 240.914062 Z M 164.289062 240.914062 " clip-rule="nonzero"/></clipPath><clipPath id="4b39a34fd6"><path d="M 147.039062 140.75 L 228.113281 140.75 L 228.113281 225.941406 L 147.039062 225.941406 Z M 147.039062 140.75 " clip-rule="nonzero"/></clipPath><clipPath id="fb004b7e34"><path d="M 164.289062 140.75 L 210.863281 140.75 C 215.441406 140.75 219.828125 142.566406 223.0625 145.800781 C 226.296875 149.035156 228.113281 153.421875 228.113281 158 L 228.113281 208.652344 C 228.113281 213.226562 226.296875 217.613281 223.0625 220.851562 C 219.828125 224.085938 215.441406 225.902344 210.863281 225.902344 L 164.289062 225.902344 C 159.710938 225.902344 155.324219 224.085938 152.089844 220.851562 C 148.855469 217.613281 147.039062 213.226562 147.039062 208.652344 L 147.039062 158 C 147.039062 153.421875 148.855469 149.035156 152.089844 145.800781 C 155.324219 142.566406 159.710938 140.75 164.289062 140.75 Z M 164.289062 140.75 " clip-rule="nonzero"/></clipPath><clipPath id="c194e8617e"><path d="M 147.039062 40.738281 L 228.113281 40.738281 L 228.113281 125.933594 L 147.039062 125.933594 Z M 147.039062 40.738281 " clip-rule="nonzero"/></clipPath><clipPath id="66b5f2d64e"><path d="M 164.289062 40.738281 L 210.863281 40.738281 C 215.441406 40.738281 219.828125 42.554688 223.0625 45.789062 C 226.296875 49.023438 228.113281 53.414062 228.113281 57.988281 L 228.113281 108.640625 C 228.113281 113.214844 226.296875 117.605469 223.0625 120.839844 C 219.828125 124.074219 215.441406 125.890625 210.863281 125.890625 L 164.289062 125.890625 C 159.710938 125.890625 155.324219 124.074219 152.089844 120.839844 C 148.855469 117.605469 147.039062 113.214844 147.039062 108.640625 L 147.039062 57.988281 C 147.039062 53.414062 148.855469 49.023438 152.089844 45.789062 C 155.324219 42.554688 159.710938 40.738281 164.289062 40.738281 Z M 164.289062 40.738281 " clip-rule="nonzero"/></clipPath></defs><rect x="-37.5" width="450" fill="#ffffff" y="-37.499999" height="449.999989" fill-opacity="1"/><rect x="-37.5" width="450" fill="#000000" y="-37.499999" height="449.999989" fill-opacity="1"/><g clip-path="url(#da5c9a3dd5)"><g clip-path="url(#9748c2d8d8)"><path fill="#ffffff" d="M 244.015625 140.75 L 325.09375 140.75 L 325.09375 225.941406 L 244.015625 225.941406 Z M 244.015625 140.75 " fill-opacity="1" fill-rule="nonzero"/></g></g><g clip-path="url(#1dc6a8dc2c)"><g clip-path="url(#76ff435080)"><path fill="#ffffff" d="M 49.90625 140.75 L 131.125 140.75 L 131.125 225.773438 L 49.90625 225.773438 Z M 49.90625 140.75 " fill-opacity="1" fill-rule="nonzero"/></g></g><g clip-path="url(#bb6f76926c)"><g clip-path="url(#7823e6c5c0)"><path fill="#ffffff" d="M 147.039062 240.914062 L 228.113281 240.914062 L 228.113281 326.109375 L 147.039062 326.109375 Z M 147.039062 240.914062 " fill-opacity="1" fill-rule="nonzero"/></g></g><g clip-path="url(#4b39a34fd6)"><g clip-path="url(#fb004b7e34)"><path fill="#ffffff" d="M 147.039062 140.75 L 228.113281 140.75 L 228.113281 225.941406 L 147.039062 225.941406 Z M 147.039062 140.75 " fill-opacity="1" fill-rule="nonzero"/></g></g><g clip-path="url(#c194e8617e)"><g clip-path="url(#66b5f2d64e)"><path fill="#ffffff" d="M 147.039062 40.738281 L 228.113281 40.738281 L 228.113281 125.933594 L 147.039062 125.933594 Z M 147.039062 40.738281 " fill-opacity="1" fill-rule="nonzero"/></g></g></svg>